<?xml version="1.0" standalone="no"?><!DOCTYPE svg PUBLIC "-//W3C//DTD SVG 1.1//EN" "http://www.w3.org/Graphics/SVG/1.1/DTD/svg11.dtd"><svg t="1597199849501" class="icon" viewBox="0 0 1024 1024" version="1.1" xmlns="http://www.w3.org/2000/svg" p-id="919" xmlns:xlink="http://www.w3.org/1999/xlink" width="200" height="200"><defs><style type="text/css"></style></defs><path d="M582.656 447.488c6.656-1.536 12.8-5.12 17.408-10.24l112.64-131.072c53.76 52.224 87.04 125.44 87.04 206.336 0 159.232-129.024 287.744-287.744 287.744S224.256 671.232 224.256 512 352.768 224.256 512 224.256c55.296 0 106.496 15.36 150.016 41.984l-110.592 129.024c-6.656 7.68-8.704 17.408-7.168 26.624-10.24-3.584-20.992-5.632-32.256-5.632-53.248 0-96.256 43.008-96.256 96.256s43.008 96.256 96.256 96.256 96.256-43.008 96.256-96.256c0-25.6-9.728-48.128-25.6-65.024m172.032-190.464c67.584 64 109.568 154.624 109.568 254.976 0 194.56-157.696 352.256-352.256 352.256S159.744 706.56 159.744 512 317.44 159.744 512 159.744c71.168 0 137.216 20.992 192.512 57.344l39.424-46.08c11.264-13.312 31.744-14.848 45.056-3.584 13.312 11.264 14.848 31.744 3.584 45.056l-37.888 44.544M512 1024c282.624 0 512-229.376 512-512S794.624 0 512 0 0 229.376 0 512s229.376 512 512 512m-31.744-512c0-17.92 14.336-31.744 31.744-31.744s31.744 14.336 31.744 31.744-14.336 31.744-31.744 31.744-31.744-13.824-31.744-31.744" p-id="920"></path></svg>