<?xml version="1.0" standalone="no"?><!DOCTYPE svg PUBLIC "-//W3C//DTD SVG 1.1//EN" "http://www.w3.org/Graphics/SVG/1.1/DTD/svg11.dtd"><svg t="1597199842470" class="icon" viewBox="0 0 1024 1024" version="1.1" xmlns="http://www.w3.org/2000/svg" p-id="778" xmlns:xlink="http://www.w3.org/1999/xlink" width="200" height="200"><defs><style type="text/css"></style></defs><path d="M358.149495 237.581H185.563788c-1.216711 0-2.229784 0.971118-2.229784 2.205225v172.596963c0 1.194198 1.035586 2.200108 2.229784 2.200109h172.584683c1.190105 0 2.180666-1.00898 2.180666-2.200109V239.786225c0.001023-1.234107-0.962931-2.205225-2.179642-2.205225zM356.532671 623.709221H187.181635c-1.196245 0-2.189875 0.973164-2.189875 2.162246v169.370479c0 1.190105 1.01819 2.162246 2.189875 2.162246h169.351036c1.171686 0 2.139733-0.972141 2.139733-2.162246V625.871467a2.14792 2.14792 0 0 0-2.139733-2.162246z" fill="" p-id="779"></path><path d="M881.050776 0.9967h-737.854935c-78.384231 0-141.927453 63.543222-141.927453 141.928477v737.897913c0 78.385255 63.543222 141.927453 141.927453 141.927453h737.856981c78.385255 0 141.92643-63.543222 141.92643-141.927453V142.925177c-0.001023-78.385255-63.542198-141.928476-141.928476-141.928477z m-317.030494 646.931109a4.689812 4.689812 0 0 1-3.086291-1.162476c-12.388145-2.711761-21.456684-13.541411-21.456685-26.218128 0-12.885472 9.387811-23.880897 22.082948-26.335808a4.231371 4.231371 0 0 1 2.459005-0.788969h1.893116c0.531096-0.063445 1.00284-0.063445 1.476631 0H874.85875c0.283456-0.031722 0.535189-0.063445 0.756223-0.063445 14.996552 0 27.224038 12.220323 27.224038 27.191292 0 14.591323-11.564383 26.530236-25.930579 27.192316a4.584412 4.584412 0 0 1-1.293459 0.184195H564.020282z m286.415219 101.617375v0.40523h-0.070608l0.070608-0.40523zM539.477306 415.83787c0-12.899798 9.387811-23.896246 22.146393-26.322505a4.006244 4.006244 0 0 1 2.396583-0.771573h1.698689c0.913812-0.097214 1.827625-0.034792 2.490727 0.12075l304.157301-0.12075c0.909719-0.097214 1.859347-0.034792 2.491751 0.12075l0.75213-0.12075c0.856507 0 1.675152 0.217964 2.396583 0.643659 12.924357 2.25332 22.50148 13.33061 22.50148 26.451442 0 13.030781-9.455349 24.045649-22.249747 26.41972-0.784876 0.585331-1.665942 1.011027-2.644223 1.011026H564.020282c-1.199315 0-2.306532-0.48914-3.122107-1.23206-12.411681-2.706645-21.420869-13.549597-21.420869-26.199709zM402.721643 795.241946c0 25.480324-20.727067 46.185902-46.188972 46.185902H187.181635c-25.476231 0-46.200228-20.704554-46.200228-46.185902V625.871467c0-25.431206 20.72502-46.185902 46.200228-46.185902h169.351036c25.456788 0 46.188972 20.754696 46.188972 46.185902v169.370479z m2.495844-382.859781c0 25.960255-21.118993 47.058782-47.067992 47.058782H185.563788c-25.959232 0-47.081295-21.098527-47.081295-47.058782V239.786225c0-25.930579 21.122063-47.058782 47.081295-47.058782h172.584683c25.944905 0 47.067992 21.126156 47.067992 47.058782v172.59594zM561.307498 187.521884c0.788969-0.64673 1.733481-1.106194 2.711761-1.106194h311.594691c1.077541 0 2.080382 0.397043 2.901073 1.014097 12.727882 2.468215 22.024619 13.419637 22.024619 26.356274 0 13.124925-9.609869 24.231891-22.624277 26.482141-0.656963 0.396019-1.449002 0.680499-2.301415 0.680499h-1.572822a4.915963 4.915963 0 0 1-0.729617 0.063445c-0.214894 0-0.50449-0.033769-0.747014-0.063445H567.425845a5.788843 5.788843 0 0 1-1.481747 0h-1.923816c-1.00898 0-1.954515-0.346901-2.73939-0.86981-12.542664-2.552126-21.835308-13.488199-21.839401-26.29283 0-12.773931 9.296737-23.710005 21.866007-26.264177z m314.307475 640.400369c-0.436952 0-1.387603-0.197498-1.888-0.323365l-306.08521 0.125867c-2.048659 0.099261-2.518357-0.063445-2.837628-0.125867l-0.783853 0.125867c-0.909719 0-1.733481-0.216941-2.459005-0.65901-12.695137-2.460028-22.082948-13.452383-22.082947-26.343994 0-12.767791 9.197476-23.660886 21.74014-26.273387 0.75213-0.729617 1.76111-1.234107 2.801812-1.234107h311.594691c0.599657 0 1.230014 0.135076 1.76111 0.350994 14.21884 0.946558 25.462928 12.730952 25.468045 27.1565-0.001023 14.973016-12.232602 27.200502-27.229155 27.200502z" fill="" p-id="780"></path></svg>