<?xml version="1.0" standalone="no"?><!DOCTYPE svg PUBLIC "-//W3C//DTD SVG 1.1//EN" "http://www.w3.org/Graphics/SVG/1.1/DTD/svg11.dtd"><svg t="1597221737383" class="icon" viewBox="0 0 1024 1024" version="1.1" xmlns="http://www.w3.org/2000/svg" p-id="869" xmlns:xlink="http://www.w3.org/1999/xlink" width="200" height="200"><defs><style type="text/css"></style></defs><path d="M772.50346667 171.14666667a51.23626667 51.23626667 0 0 0-32.76373334-11.78346667c-28.4128 0-51.44533333 23.03146667-51.44533333 51.44426667 0 15.9712 7.27893333 30.24213333 18.69866667 39.67786666l-0.0576 0.07146667c0.384 0.25706667 0.76053333 0.52266667 1.14346666 0.78186667a51.51466667 51.51466667 0 0 0 5.0688 3.51253333c89.60746667 63.232 148.1408 167.56266667 148.1408 285.5744 0 192.90666667-156.38186667 349.28853333-349.28853333 349.28853333S162.71146667 733.33226667 162.71146667 540.4256c0-117.28106667 57.808-221.05493333 146.47893333-284.40213333l-0.1632-0.2752c15.75146667-8.7936 26.41066667-25.61813333 26.41066667-44.9408 0-28.4128-23.03253333-51.44533333-51.44533334-51.44533334-13.05066667 0-24.95786667 4.86933333-34.0288 12.88-114.91413333 81.9296-189.856 216.29866667-189.856 368.18346667 0 249.57333333 202.31786667 451.89226667 451.8912 451.89226667s451.89226667-202.31893333 451.89226667-451.89333334c0-152.56-75.60533333-287.4528-191.38773333-369.27893333z" p-id="870"></path><path d="M563.30133333 393.00586667c0 28.3328-22.96853333 51.3024-51.30133333 51.3024-28.3328 0-51.30133333-22.9696-51.30133333-51.3024V85.60533333c0-28.3328 22.96853333-51.3024 51.30133333-51.3024 28.3328 0 51.30133333 22.9696 51.30133333 51.3024v307.40053334z" p-id="871"></path></svg>