<?xml version="1.0" standalone="no"?><!DOCTYPE svg PUBLIC "-//W3C//DTD SVG 1.1//EN" "http://www.w3.org/Graphics/SVG/1.1/DTD/svg11.dtd"><svg class="icon" width="200px" height="200.00px" viewBox="0 0 1024 1024" version="1.1" xmlns="http://www.w3.org/2000/svg"><path fill="#333333" d="M832.2 264.6H192.3c-35.2 0-64-28.8-64-64s28.8-64 64-64h639.8c35.2 0 64 28.8 64 64 0.1 35.2-28.7 64-63.9 64zM832.2 577.9H196.1c-35.2 0-64-28.8-64-64s28.8-64 64-64h636.1c35.2 0 64 28.8 64 64s-28.8 64-64 64zM832.2 896.9H192.3c-35.2 0-64-28.8-64-64s28.8-64 64-64h639.8c35.2 0 64 28.8 64 64 0.1 35.2-28.7 64-63.9 64z"  /></svg>